<svg width="564" height="37" viewBox="0 0 564 37" fill="none" xmlns="http://www.w3.org/2000/svg">
<path d="M23.6 7.12V29H14.6V14.16H9.12V29H0.12V7.12H23.6ZM42.4544 6.72C44.3744 6.72 46.1344 7.18667 47.7344 8.12C49.361 9.02667 50.641 10.3467 51.5744 12.08C52.5344 13.8133 53.0144 15.8133 53.0144 18.08C53.0144 20.3467 52.5344 22.3467 51.5744 24.08C50.641 25.7867 49.361 27.1067 47.7344 28.04C46.1344 28.9467 44.3744 29.4 42.4544 29.4C40.0277 29.4 38.1744 28.7733 36.8944 27.52V36.76H27.8544V7.12H36.4544V8.92C37.761 7.45333 39.761 6.72 42.4544 6.72ZM40.2944 22.36C41.3344 22.36 42.1877 21.9867 42.8544 21.24C43.521 20.4933 43.8544 19.44 43.8544 18.08C43.8544 16.72 43.521 15.6667 42.8544 14.92C42.1877 14.1467 41.3344 13.76 40.2944 13.76C39.2544 13.76 38.401 14.1467 37.7344 14.92C37.0677 15.6667 36.7344 16.72 36.7344 18.08C36.7344 19.44 37.0677 20.4933 37.7344 21.24C38.401 21.9867 39.2544 22.36 40.2944 22.36ZM55.9403 7.12H64.9403V17L72.5003 7.12H80.8203V29H71.8203V19.08L64.3003 29H55.9403V7.12ZM103.642 17.52C106.042 18.4267 107.242 20.12 107.242 22.6C107.242 24.6 106.455 26.1733 104.882 27.32C103.309 28.44 101.002 29 97.9619 29H85.0419V7.12H97.3219C100.255 7.12 102.535 7.62667 104.162 8.64C105.789 9.62667 106.602 11.0267 106.602 12.84C106.602 13.8533 106.349 14.76 105.842 15.56C105.335 16.36 104.602 17.0133 103.642 17.52ZM92.9619 15.76H96.5219C97.8285 15.76 98.4819 15.24 98.4819 14.2C98.4819 13.6933 98.3219 13.32 98.0019 13.08C97.7085 12.84 97.2152 12.72 96.5219 12.72H92.9619V15.76ZM97.1619 23.4C98.4685 23.4 99.1219 22.8533 99.1219 21.76C99.1219 20.72 98.4685 20.2 97.1619 20.2H92.9619V23.4H97.1619ZM119.518 6.72C123.358 6.72 126.291 7.58667 128.318 9.32C130.345 11.0267 131.358 13.6667 131.358 17.24V29H122.958V26.12C121.918 28.3067 119.851 29.4 116.758 29.4C115.025 29.4 113.545 29.1067 112.318 28.52C111.118 27.9067 110.198 27.0933 109.558 26.08C108.945 25.04 108.638 23.88 108.638 22.6C108.638 20.44 109.465 18.8 111.118 17.68C112.771 16.56 115.278 16 118.638 16H122.278C121.985 14.2933 120.611 13.44 118.158 13.44C117.171 13.44 116.171 13.6 115.158 13.92C114.145 14.2133 113.278 14.6267 112.558 15.16L109.678 9.2C110.931 8.42666 112.438 7.82667 114.198 7.4C115.985 6.94667 117.758 6.72 119.518 6.72ZM119.478 23.96C120.118 23.96 120.691 23.7867 121.198 23.44C121.705 23.0933 122.078 22.5733 122.318 21.88V20.36H120.078C118.238 20.36 117.318 20.9733 117.318 22.2C117.318 22.7067 117.505 23.1333 117.878 23.48C118.278 23.8 118.811 23.96 119.478 23.96ZM155.762 14.16H149.082V29H140.082V14.16H133.402V7.12H155.762V14.16ZM158.362 7.12H167.362V14.8H173.522V7.12H182.522V29H173.522V21.88H167.362V29H158.362V7.12ZM200.281 13.72C203.187 13.72 205.361 14.36 206.801 15.64C208.267 16.8933 209.001 18.7067 209.001 21.08C209.001 23.56 208.147 25.5067 206.441 26.92C204.734 28.3067 202.307 29 199.161 29H186.761V7.12H195.761V13.72H200.281ZM210.321 7.12H219.321V29H210.321V7.12ZM198.241 22.92C199.547 22.92 200.201 22.2533 200.201 20.92C200.201 19.64 199.547 19 198.241 19H195.761V22.92H198.241ZM246.558 18.04C246.558 18.1733 246.518 18.88 246.438 20.16H231.238C231.558 20.9867 232.091 21.6267 232.838 22.08C233.584 22.5067 234.518 22.72 235.638 22.72C236.598 22.72 237.398 22.6 238.038 22.36C238.704 22.12 239.424 21.7067 240.198 21.12L244.918 25.88C242.784 28.2267 239.598 29.4 235.358 29.4C232.718 29.4 230.398 28.92 228.398 27.96C226.398 26.9733 224.851 25.6133 223.758 23.88C222.664 22.1467 222.118 20.2 222.118 18.04C222.118 15.8533 222.651 13.9067 223.718 12.2C224.811 10.4667 226.291 9.12 228.158 8.16C230.051 7.2 232.171 6.72 234.518 6.72C236.731 6.72 238.744 7.16 240.558 8.04C242.398 8.92 243.851 10.2133 244.918 11.92C246.011 13.6267 246.558 15.6667 246.558 18.04ZM234.598 12.88C233.664 12.88 232.891 13.1333 232.278 13.64C231.664 14.1467 231.264 14.8667 231.078 15.8H238.118C237.931 14.8933 237.531 14.1867 236.918 13.68C236.304 13.1467 235.531 12.88 234.598 12.88ZM285.28 7.12V29H276.28V14.16H270.8V29H261.8V7.12H285.28ZM300.814 29.4C298.387 29.4 296.201 28.92 294.254 27.96C292.334 26.9733 290.827 25.6267 289.734 23.92C288.641 22.1867 288.094 20.2267 288.094 18.04C288.094 15.8533 288.641 13.9067 289.734 12.2C290.827 10.4667 292.334 9.12 294.254 8.16C296.201 7.2 298.387 6.72 300.814 6.72C303.267 6.72 305.454 7.2 307.374 8.16C309.321 9.12 310.827 10.4667 311.894 12.2C312.987 13.9067 313.534 15.8533 313.534 18.04C313.534 20.2267 312.987 22.1867 311.894 23.92C310.827 25.6267 309.321 26.9733 307.374 27.96C305.454 28.92 303.267 29.4 300.814 29.4ZM300.814 22.36C301.854 22.36 302.707 21.9867 303.374 21.24C304.041 20.4667 304.374 19.4 304.374 18.04C304.374 16.68 304.041 15.6267 303.374 14.88C302.707 14.1333 301.854 13.76 300.814 13.76C299.774 13.76 298.921 14.1333 298.254 14.88C297.587 15.6267 297.254 16.68 297.254 18.04C297.254 19.4 297.587 20.4667 298.254 21.24C298.921 21.9867 299.774 22.36 300.814 22.36ZM327.811 29.4C325.331 29.4 323.104 28.92 321.131 27.96C319.184 27 317.651 25.6533 316.531 23.92C315.438 22.1867 314.891 20.2267 314.891 18.04C314.891 15.8533 315.438 13.9067 316.531 12.2C317.651 10.4667 319.184 9.12 321.131 8.16C323.104 7.2 325.331 6.72 327.811 6.72C330.478 6.72 332.758 7.29333 334.651 8.44C336.544 9.58667 337.851 11.1733 338.571 13.2L331.571 16.64C330.718 14.72 329.451 13.76 327.771 13.76C326.704 13.76 325.811 14.1333 325.091 14.88C324.398 15.6267 324.051 16.68 324.051 18.04C324.051 19.4267 324.398 20.4933 325.091 21.24C325.811 21.9867 326.704 22.36 327.771 22.36C329.451 22.36 330.718 21.4 331.571 19.48L338.571 22.92C337.851 24.9467 336.544 26.5333 334.651 27.68C332.758 28.8267 330.478 29.4 327.811 29.4ZM361.973 14.16H355.293V29H346.293V14.16H339.613V7.12H361.973V14.16ZM373.893 6.72C377.733 6.72 380.666 7.58667 382.693 9.32C384.72 11.0267 385.733 13.6667 385.733 17.24V29H377.333V26.12C376.293 28.3067 374.226 29.4 371.133 29.4C369.4 29.4 367.92 29.1067 366.693 28.52C365.493 27.9067 364.573 27.0933 363.933 26.08C363.32 25.04 363.013 23.88 363.013 22.6C363.013 20.44 363.84 18.8 365.493 17.68C367.146 16.56 369.653 16 373.013 16H376.653C376.36 14.2933 374.986 13.44 372.533 13.44C371.546 13.44 370.546 13.6 369.533 13.92C368.52 14.2133 367.653 14.6267 366.933 15.16L364.053 9.2C365.306 8.42666 366.813 7.82667 368.573 7.4C370.36 6.94667 372.133 6.72 373.893 6.72ZM373.853 23.96C374.493 23.96 375.066 23.7867 375.573 23.44C376.08 23.0933 376.453 22.5733 376.693 21.88V20.36H374.453C372.613 20.36 371.693 20.9733 371.693 22.2C371.693 22.7067 371.88 23.1333 372.253 23.48C372.653 23.8 373.186 23.96 373.853 23.96ZM408.017 17.52C410.417 18.4267 411.617 20.12 411.617 22.6C411.617 24.6 410.83 26.1733 409.257 27.32C407.684 28.44 405.377 29 402.337 29H389.417V7.12H401.697C404.63 7.12 406.91 7.62667 408.537 8.64C410.164 9.62667 410.977 11.0267 410.977 12.84C410.977 13.8533 410.724 14.76 410.217 15.56C409.71 16.36 408.977 17.0133 408.017 17.52ZM397.337 15.76H400.897C402.204 15.76 402.857 15.24 402.857 14.2C402.857 13.6933 402.697 13.32 402.377 13.08C402.084 12.84 401.59 12.72 400.897 12.72H397.337V15.76ZM401.537 23.4C402.844 23.4 403.497 22.8533 403.497 21.76C403.497 20.72 402.844 20.2 401.537 20.2H397.337V23.4H401.537ZM450.533 7.12V29H414.573V7.12H423.573V21.92H428.093V7.12H437.093V21.92H441.573V7.12H450.533ZM453.373 21.92V33.04H445.013V29H441.413V21.92H453.373ZM454.768 7.12H463.768V17L471.328 7.12H479.648V29H470.648V19.08L463.128 29H454.768V7.12ZM494.63 21.72H492.91V29H483.87V7.12H492.91V14.8H494.87L499.67 7.12H509.19L502.15 17.6L509.63 29H498.99L494.63 21.72ZM511.643 7.12H520.643V17L528.203 7.12H536.523V29H527.523V19.08L520.003 29H511.643V7.12ZM548.507 18.28C548.507 17.0267 548.787 15.9867 549.347 15.16C549.907 14.3067 550.707 13.3867 551.747 12.4C552.413 11.76 552.893 11.24 553.187 10.84C553.507 10.44 553.667 10.0133 553.667 9.56C553.667 8.97333 553.413 8.52 552.907 8.2C552.4 7.85333 551.76 7.68 550.987 7.68C550.133 7.68 549.333 7.93333 548.587 8.44C547.84 8.92 547.253 9.57333 546.827 10.4L539.707 6.84C540.773 4.81333 542.347 3.22666 544.427 2.08C546.533 0.933332 549.12 0.359999 552.187 0.359999C555.44 0.359999 558.08 1.02667 560.107 2.36C562.133 3.69333 563.147 5.57333 563.147 8C563.147 9.12 562.947 10.1067 562.547 10.96C562.173 11.7867 561.72 12.4933 561.187 13.08C560.653 13.64 559.973 14.2667 559.147 14.96C558.293 15.7067 557.68 16.3067 557.307 16.76C556.933 17.2133 556.747 17.72 556.747 18.28H548.507ZM552.627 29.4C551.08 29.4 549.813 28.9333 548.827 28C547.84 27.0667 547.347 25.9333 547.347 24.6C547.347 23.24 547.84 22.12 548.827 21.24C549.813 20.3333 551.08 19.88 552.627 19.88C554.173 19.88 555.44 20.3333 556.427 21.24C557.413 22.12 557.907 23.24 557.907 24.6C557.907 25.9333 557.413 27.0667 556.427 28C555.44 28.9333 554.173 29.4 552.627 29.4Z" fill="#8553E3"/>
</svg>
