<svg width="688" height="37" viewBox="0 0 688 37" fill="none" xmlns="http://www.w3.org/2000/svg">
<path d="M27.56 -1.90735e-06V28H18.28V7.32H9.76V28H0.48V-1.90735e-06H27.56ZM43.4313 28.4C41.0046 28.4 38.8179 27.92 36.8713 26.96C34.9513 25.9733 33.4446 24.6267 32.3513 22.92C31.2579 21.1867 30.7113 19.2267 30.7113 17.04C30.7113 14.8533 31.2579 12.9067 32.3513 11.2C33.4446 9.46667 34.9513 8.12 36.8713 7.16C38.8179 6.2 41.0046 5.72 43.4313 5.72C45.8846 5.72 48.0713 6.2 49.9913 7.16C51.9379 8.12 53.4446 9.46667 54.5113 11.2C55.6046 12.9067 56.1513 14.8533 56.1513 17.04C56.1513 19.2267 55.6046 21.1867 54.5113 22.92C53.4446 24.6267 51.9379 25.9733 49.9913 26.96C48.0713 27.92 45.8846 28.4 43.4313 28.4ZM43.4313 21.36C44.4713 21.36 45.3246 20.9867 45.9913 20.24C46.6579 19.4667 46.9913 18.4 46.9913 17.04C46.9913 15.68 46.6579 14.6267 45.9913 13.88C45.3246 13.1333 44.4713 12.76 43.4313 12.76C42.3913 12.76 41.5379 13.1333 40.8713 13.88C40.2046 14.6267 39.8713 15.68 39.8713 17.04C39.8713 18.4 40.2046 19.4667 40.8713 20.24C41.5379 20.9867 42.3913 21.36 43.4313 21.36ZM70.4281 28.4C67.9481 28.4 65.7215 27.92 63.7481 26.96C61.8015 26 60.2681 24.6533 59.1481 22.92C58.0548 21.1867 57.5081 19.2267 57.5081 17.04C57.5081 14.8533 58.0548 12.9067 59.1481 11.2C60.2681 9.46667 61.8015 8.12 63.7481 7.16C65.7215 6.2 67.9481 5.72 70.4281 5.72C73.0948 5.72 75.3748 6.29333 77.2681 7.44C79.1615 8.58667 80.4681 10.1733 81.1881 12.2L74.1881 15.64C73.3348 13.72 72.0681 12.76 70.3881 12.76C69.3215 12.76 68.4281 13.1333 67.7081 13.88C67.0148 14.6267 66.6681 15.68 66.6681 17.04C66.6681 18.4267 67.0148 19.4933 67.7081 20.24C68.4281 20.9867 69.3215 21.36 70.3881 21.36C72.0681 21.36 73.3348 20.4 74.1881 18.48L81.1881 21.92C80.4681 23.9467 79.1615 25.5333 77.2681 26.68C75.3748 27.8267 73.0948 28.4 70.4281 28.4ZM107.275 6.12V28H98.2347V13.16H94.1147L93.9947 16C93.888 18.8267 93.5947 21.1467 93.1147 22.96C92.6347 24.7733 91.8347 26.1733 90.7147 27.16C89.6214 28.12 88.1147 28.6 86.1947 28.6C84.9947 28.6 83.5947 28.4 81.9947 28L82.3547 20.68C82.7814 20.7333 83.088 20.76 83.2747 20.76C84.368 20.76 85.088 20.3733 85.4347 19.6C85.7814 18.8 85.9947 17.48 86.0747 15.64L86.3947 6.12H107.275ZM134.526 17.04C134.526 17.1733 134.486 17.88 134.406 19.16H119.206C119.526 19.9867 120.06 20.6267 120.806 21.08C121.553 21.5067 122.486 21.72 123.606 21.72C124.566 21.72 125.366 21.6 126.006 21.36C126.673 21.12 127.393 20.7067 128.166 20.12L132.886 24.88C130.753 27.2267 127.566 28.4 123.326 28.4C120.686 28.4 118.366 27.92 116.366 26.96C114.366 25.9733 112.82 24.6133 111.726 22.88C110.633 21.1467 110.086 19.2 110.086 17.04C110.086 14.8533 110.62 12.9067 111.686 11.2C112.78 9.46667 114.26 8.12 116.126 7.16C118.02 6.2 120.14 5.72 122.486 5.72C124.7 5.72 126.713 6.16 128.526 7.04C130.366 7.92 131.82 9.21333 132.886 10.92C133.98 12.6267 134.526 14.6667 134.526 17.04ZM122.566 11.88C121.633 11.88 120.86 12.1333 120.246 12.64C119.633 13.1467 119.233 13.8667 119.046 14.8H126.086C125.9 13.8933 125.5 13.1867 124.886 12.68C124.273 12.1467 123.5 11.88 122.566 11.88ZM173.248 6.12V28H164.248V13.16H158.768V28H149.768V6.12H173.248ZM192.103 5.72C194.023 5.72 195.783 6.18667 197.383 7.12C199.009 8.02667 200.289 9.34667 201.223 11.08C202.183 12.8133 202.663 14.8133 202.663 17.08C202.663 19.3467 202.183 21.3467 201.223 23.08C200.289 24.7867 199.009 26.1067 197.383 27.04C195.783 27.9467 194.023 28.4 192.103 28.4C189.676 28.4 187.823 27.7733 186.543 26.52V35.76H177.503V6.12H186.103V7.92C187.409 6.45333 189.409 5.72 192.103 5.72ZM189.943 21.36C190.983 21.36 191.836 20.9867 192.503 20.24C193.169 19.4933 193.503 18.44 193.503 17.08C193.503 15.72 193.169 14.6667 192.503 13.92C191.836 13.1467 190.983 12.76 189.943 12.76C188.903 12.76 188.049 13.1467 187.383 13.92C186.716 14.6667 186.383 15.72 186.383 17.08C186.383 18.44 186.716 19.4933 187.383 20.24C188.049 20.9867 188.903 21.36 189.943 21.36ZM216.869 28.4C214.442 28.4 212.255 27.92 210.309 26.96C208.389 25.9733 206.882 24.6267 205.789 22.92C204.695 21.1867 204.149 19.2267 204.149 17.04C204.149 14.8533 204.695 12.9067 205.789 11.2C206.882 9.46667 208.389 8.12 210.309 7.16C212.255 6.2 214.442 5.72 216.869 5.72C219.322 5.72 221.509 6.2 223.429 7.16C225.375 8.12 226.882 9.46667 227.949 11.2C229.042 12.9067 229.589 14.8533 229.589 17.04C229.589 19.2267 229.042 21.1867 227.949 22.92C226.882 24.6267 225.375 25.9733 223.429 26.96C221.509 27.92 219.322 28.4 216.869 28.4ZM216.869 21.36C217.909 21.36 218.762 20.9867 219.429 20.24C220.095 19.4667 220.429 18.4 220.429 17.04C220.429 15.68 220.095 14.6267 219.429 13.88C218.762 13.1333 217.909 12.76 216.869 12.76C215.829 12.76 214.975 13.1333 214.309 13.88C213.642 14.6267 213.309 15.68 213.309 17.04C213.309 18.4 213.642 19.4667 214.309 20.24C214.975 20.9867 215.829 21.36 216.869 21.36ZM245.72 28L242.72 23.32L239.36 28H229.56L237.84 17.16L229.8 6.12H240L243.12 10.76L246.4 6.12H255.88L247.84 16.76L256.08 28H245.72ZM268.783 28.4C266.356 28.4 264.169 27.92 262.223 26.96C260.303 25.9733 258.796 24.6267 257.703 22.92C256.609 21.1867 256.063 19.2267 256.063 17.04C256.063 14.8533 256.609 12.9067 257.703 11.2C258.796 9.46667 260.303 8.12 262.223 7.16C264.169 6.2 266.356 5.72 268.783 5.72C271.236 5.72 273.423 6.2 275.343 7.16C277.289 8.12 278.796 9.46667 279.863 11.2C280.956 12.9067 281.503 14.8533 281.503 17.04C281.503 19.2267 280.956 21.1867 279.863 22.92C278.796 24.6267 277.289 25.9733 275.343 26.96C273.423 27.92 271.236 28.4 268.783 28.4ZM268.783 21.36C269.823 21.36 270.676 20.9867 271.343 20.24C272.009 19.4667 272.343 18.4 272.343 17.04C272.343 15.68 272.009 14.6267 271.343 13.88C270.676 13.1333 269.823 12.76 268.783 12.76C267.743 12.76 266.889 13.1333 266.223 13.88C265.556 14.6267 265.223 15.68 265.223 17.04C265.223 18.4 265.556 19.4667 266.223 20.24C266.889 20.9867 267.743 21.36 268.783 21.36ZM307.234 20.72H305.874V28H296.954V20.72H295.514L292.194 28H281.554L287.834 16.72L281.994 6.12H291.514L295.314 13.8H296.954V6.12H305.874V13.8H307.434L311.274 6.12H320.794L314.954 16.72L321.234 28H310.554L307.234 20.72ZM350.523 20.92V32.32H342.163V28H330.083V32.32H321.723V20.92H322.363C323.643 20.92 324.536 20.32 325.043 19.12C325.55 17.8933 325.843 16.1333 325.923 13.84L326.203 6.12H347.603V20.92H350.523ZM334.043 14.52C333.99 16.2 333.87 17.5333 333.683 18.52C333.523 19.48 333.19 20.28 332.683 20.92H338.603V13.16H334.083L334.043 14.52ZM376.167 17.04C376.167 17.1733 376.127 17.88 376.047 19.16H360.847C361.167 19.9867 361.7 20.6267 362.447 21.08C363.194 21.5067 364.127 21.72 365.247 21.72C366.207 21.72 367.007 21.6 367.647 21.36C368.314 21.12 369.034 20.7067 369.807 20.12L374.527 24.88C372.394 27.2267 369.207 28.4 364.967 28.4C362.327 28.4 360.007 27.92 358.007 26.96C356.007 25.9733 354.46 24.6133 353.367 22.88C352.274 21.1467 351.727 19.2 351.727 17.04C351.727 14.8533 352.26 12.9067 353.327 11.2C354.42 9.46667 355.9 8.12 357.767 7.16C359.66 6.2 361.78 5.72 364.127 5.72C366.34 5.72 368.354 6.16 370.167 7.04C372.007 7.92 373.46 9.21333 374.527 10.92C375.62 12.6267 376.167 14.6667 376.167 17.04ZM364.207 11.88C363.274 11.88 362.5 12.1333 361.887 12.64C361.274 13.1467 360.874 13.8667 360.687 14.8H367.727C367.54 13.8933 367.14 13.1867 366.527 12.68C365.914 12.1467 365.14 11.88 364.207 11.88ZM379.417 6.12H388.417V13.8H394.577V6.12H403.577V28H394.577V20.88H388.417V28H379.417V6.12ZM407.815 6.12H416.815V16L424.375 6.12H432.695V28H423.695V18.08L416.175 28H407.815V6.12ZM458.597 6.12V28H450.597V22.44H448.397L444.837 28H435.277L439.997 21.16C438.61 20.4933 437.544 19.6 436.797 18.48C436.077 17.36 435.717 16.0533 435.717 14.56C435.717 11.92 436.73 9.85333 438.757 8.36C440.784 6.86666 443.557 6.12 447.077 6.12H458.597ZM447.277 13.12C445.73 13.12 444.957 13.7067 444.957 14.88C444.957 15.5467 445.144 16.04 445.517 16.36C445.917 16.6533 446.504 16.8 447.277 16.8H450.597V13.12H447.277ZM485.607 20.72H483.887V28H474.847V6.12H483.887V13.8H485.847L490.647 6.12H500.167L493.127 16.6L500.607 28H489.967L485.607 20.72ZM526.129 6.12L517.129 28.44C515.982 31.2933 514.556 33.2933 512.849 34.44C511.142 35.5867 509.049 36.16 506.569 36.16C505.342 36.16 504.102 35.9733 502.849 35.6C501.622 35.2533 500.649 34.7867 499.929 34.2L502.929 28C503.382 28.3467 503.889 28.6267 504.449 28.84C505.036 29.0533 505.596 29.16 506.129 29.16C507.116 29.16 507.862 28.8667 508.369 28.28L499.169 6.12H508.449L512.969 17.84L517.569 6.12H526.129ZM542.728 5.72C544.648 5.72 546.408 6.18667 548.008 7.12C549.634 8.02667 550.914 9.34667 551.848 11.08C552.808 12.8133 553.288 14.8133 553.288 17.08C553.288 19.3467 552.808 21.3467 551.848 23.08C550.914 24.7867 549.634 26.1067 548.008 27.04C546.408 27.9467 544.648 28.4 542.728 28.4C540.301 28.4 538.448 27.7733 537.168 26.52V35.76H528.128V6.12H536.728V7.92C538.034 6.45333 540.034 5.72 542.728 5.72ZM540.568 21.36C541.608 21.36 542.461 20.9867 543.128 20.24C543.794 19.4933 544.128 18.44 544.128 17.08C544.128 15.72 543.794 14.6667 543.128 13.92C542.461 13.1467 541.608 12.76 540.568 12.76C539.528 12.76 538.674 13.1467 538.008 13.92C537.341 14.6667 537.008 15.72 537.008 17.08C537.008 18.44 537.341 19.4933 538.008 20.24C538.674 20.9867 539.528 21.36 540.568 21.36ZM567.694 28.4C565.214 28.4 562.987 27.92 561.014 26.96C559.067 26 557.534 24.6533 556.414 22.92C555.32 21.1867 554.774 19.2267 554.774 17.04C554.774 14.8533 555.32 12.9067 556.414 11.2C557.534 9.46667 559.067 8.12 561.014 7.16C562.987 6.2 565.214 5.72 567.694 5.72C570.36 5.72 572.64 6.29333 574.534 7.44C576.427 8.58667 577.734 10.1733 578.454 12.2L571.454 15.64C570.6 13.72 569.334 12.76 567.654 12.76C566.587 12.76 565.694 13.1333 564.974 13.88C564.28 14.6267 563.934 15.68 563.934 17.04C563.934 18.4267 564.28 19.4933 564.974 20.24C565.694 20.9867 566.587 21.36 567.654 21.36C569.334 21.36 570.6 20.4 571.454 18.48L578.454 21.92C577.734 23.9467 576.427 25.5333 574.534 26.68C572.64 27.8267 570.36 28.4 567.694 28.4ZM590.26 5.72C594.1 5.72 597.034 6.58667 599.06 8.32C601.087 10.0267 602.1 12.6667 602.1 16.24V28H593.7V25.12C592.66 27.3067 590.594 28.4 587.5 28.4C585.767 28.4 584.287 28.1067 583.06 27.52C581.86 26.9067 580.94 26.0933 580.3 25.08C579.687 24.04 579.38 22.88 579.38 21.6C579.38 19.44 580.207 17.8 581.86 16.68C583.514 15.56 586.02 15 589.38 15H593.02C592.727 13.2933 591.354 12.44 588.9 12.44C587.914 12.44 586.914 12.6 585.9 12.92C584.887 13.2133 584.02 13.6267 583.3 14.16L580.42 8.2C581.674 7.42666 583.18 6.82667 584.94 6.4C586.727 5.94667 588.5 5.72 590.26 5.72ZM590.22 22.96C590.86 22.96 591.434 22.7867 591.94 22.44C592.447 22.0933 592.82 21.5733 593.06 20.88V19.36H590.82C588.98 19.36 588.06 19.9733 588.06 21.2C588.06 21.7067 588.247 22.1333 588.62 22.48C589.02 22.8 589.554 22.96 590.22 22.96ZM638.496 13.16H631.816V28H622.816V13.16H616.136V6.12H638.496V13.16ZM654.617 12.72C657.523 12.72 659.697 13.36 661.137 14.64C662.603 15.8933 663.337 17.7067 663.337 20.08C663.337 22.56 662.483 24.5067 660.777 25.92C659.07 27.3067 656.643 28 653.497 28H641.097V6.12H650.097V12.72H654.617ZM664.657 6.12H673.657V28H664.657V6.12ZM652.577 21.92C653.883 21.92 654.537 21.2533 654.537 19.92C654.537 18.64 653.883 18 652.577 18H650.097V21.92H652.577ZM681.853 16.04C680.333 16.04 679.067 15.56 678.053 14.6C677.067 13.6133 676.573 12.36 676.573 10.84C676.573 9.32 677.067 8.09333 678.053 7.16C679.067 6.2 680.333 5.72 681.853 5.72C683.373 5.72 684.627 6.2 685.613 7.16C686.627 8.09333 687.133 9.32 687.133 10.84C687.133 12.36 686.627 13.6133 685.613 14.6C684.627 15.56 683.373 16.04 681.853 16.04ZM681.853 28.4C680.333 28.4 679.067 27.92 678.053 26.96C677.067 25.9733 676.573 24.72 676.573 23.2C676.573 21.68 677.067 20.4533 678.053 19.52C679.067 18.56 680.333 18.08 681.853 18.08C683.373 18.08 684.627 18.56 685.613 19.52C686.627 20.4533 687.133 21.68 687.133 23.2C687.133 24.72 686.627 25.9733 685.613 26.96C684.627 27.92 683.373 28.4 681.853 28.4Z" fill="white"/>
</svg>
