<svg width="248" height="30" viewBox="0 0 248 30" fill="none" xmlns="http://www.w3.org/2000/svg">
<path d="M20.04 14.6L28.32 29H17.68L12.32 18.88H9.68V29H0.24V0.999998H9.68V11.44H12.56L18.52 0.999998H28.36L20.04 14.6ZM53.695 8.32H45.495V29H36.215V8.32H28.015V0.999998H53.695V8.32ZM70.6575 29.64C67.6442 29.64 64.9375 29.0133 62.5375 27.76C60.1375 26.5067 58.2575 24.7733 56.8975 22.56C55.5375 20.32 54.8575 17.8 54.8575 15C54.8575 12.2 55.5375 9.69333 56.8975 7.48C58.2575 5.24 60.1375 3.49333 62.5375 2.24C64.9375 0.986666 67.6442 0.359999 70.6575 0.359999C73.6708 0.359999 76.3775 0.986666 78.7775 2.24C81.1775 3.49333 83.0575 5.24 84.4175 7.48C85.7775 9.69333 86.4575 12.2 86.4575 15C86.4575 17.8 85.7775 20.32 84.4175 22.56C83.0575 24.7733 81.1775 26.5067 78.7775 27.76C76.3775 29.0133 73.6708 29.64 70.6575 29.64ZM70.6575 22C71.8308 22 72.8842 21.72 73.8175 21.16C74.7775 20.5733 75.5375 19.76 76.0975 18.72C76.6575 17.6533 76.9375 16.4133 76.9375 15C76.9375 13.5867 76.6575 12.36 76.0975 11.32C75.5375 10.2533 74.7775 9.44 73.8175 8.88C72.8842 8.29333 71.8308 8 70.6575 8C69.4842 8 68.4175 8.29333 67.4575 8.88C66.5242 9.44 65.7775 10.2533 65.2175 11.32C64.6575 12.36 64.3775 13.5867 64.3775 15C64.3775 16.4133 64.6575 17.6533 65.2175 18.72C65.7775 19.76 66.5242 20.5733 67.4575 21.16C68.4175 21.72 69.4842 22 70.6575 22ZM125.687 8.32H117.487V29H108.207V8.32H100.007V0.999998H125.687V8.32ZM147.154 24.12H136.514L134.634 29H125.034L137.274 0.999998H146.554L158.794 29H149.034L147.154 24.12ZM144.554 17.32L141.834 10.28L139.114 17.32H144.554ZM180.938 14.6L189.218 29H178.578L173.218 18.88H170.578V29H161.138V0.999998H170.578V11.44H173.458L179.418 0.999998H189.258L180.938 14.6ZM191.183 0.999998H200.463V15.56L210.103 0.999998H218.983V29H209.703V14.48L200.103 29H191.183V0.999998ZM247.237 21.88V29H223.957V0.999998H246.717V8.12H233.237V11.4H245.077V18.2H233.237V21.88H247.237Z" fill="white"/>
</svg>
